<svg preserveAspectRatio="none" width="100%" height="100%" overflow="visible" style="display: block;" viewBox="0 0 18.123 19.4972" fill="none" xmlns="http://www.w3.org/2000/svg">
<path id="Vector" d="M6.20501 14.832C8.10303 15.0571 10.021 15.0571 11.919 14.832C13.7822 14.6114 15.6129 14.1717 17.373 13.522C15.8824 11.8708 15.0587 9.7245 15.062 7.5V6.8V6.75C15.062 5.1587 14.4299 3.63258 13.3047 2.50736C12.1794 1.38214 10.6533 0.75 9.06201 0.75C7.47071 0.75 5.94459 1.38214 4.81937 2.50736C3.69415 3.63258 3.06201 5.1587 3.06201 6.75V7.5C3.06503 9.72463 2.241 11.871 0.750011 13.522C2.48301 14.162 4.31001 14.607 6.20501 14.832ZM11.919 14.832C12.0631 15.2819 12.0989 15.7594 12.0236 16.2257C11.9482 16.692 11.7638 17.134 11.4854 17.5156C11.2069 17.8972 10.8423 18.2076 10.4212 18.4216C10.0001 18.6356 9.53439 18.7472 9.06201 18.7472C8.58963 18.7472 8.12393 18.6356 7.70282 18.4216C7.28171 18.2076 6.91708 17.8972 6.63863 17.5156C6.36018 17.134 6.17578 16.692 6.10042 16.2257C6.02507 15.7594 6.06091 15.2819 6.20501 14.832" stroke="var(--stroke-0, black)" stroke-width="1.5" stroke-linecap="round" stroke-linejoin="round"/>
</svg>
